<?xml version="1.0" encoding="UTF-8"?>
<svg xmlns="http://www.w3.org/2000/svg" viewBox="0 0 202.41 199.73">
  <defs>
    <style>
      .cls-1, .cls-2 {
        fill: #fff;
      }

      .cls-1, .cls-3 {
        stroke: #fff;
      }

      .cls-1, .cls-3, .cls-4 {
        stroke-miterlimit: 10;
      }

      .cls-3 {
        fill: none;
      }

      .cls-5 {
        fill: #f42a95;
      }

      .cls-4 {
        stroke: #000;
      }

      .cls-6 {
        fill: #edb64f;
      }

      .cls-7 {
        fill: #3a42f0;
      }
    </style>
  </defs>
  <g id="Layer_2" data-name="Layer 2">
    <rect width="202.41" height="199.73"/>
  </g>
  <g id="Layer_3" data-name="Layer 3">
    <rect class="cls-5" x="79.97" y="59.76" width="52.54" height="65.06"/>
    <rect class="cls-6" x="103.4" y="77.52" width="52.54" height="65.06"/>
    <rect class="cls-7" x="64.66" y="91.48" width="52.54" height="65.06"/>
  </g>
  <g id="Layer_4" data-name="Layer 4">
    <g>
      <polygon class="cls-2" points="110.26 99.23 122.26 147.37 118.42 148.38 87.67 103.01 88.96 87.3 101.26 84.48 110.26 99.23"/>
      <g>
        <polyline class="cls-3" points="88.99 86.95 88.96 87.3 87.67 103.01 87.65 103.19"/>
        <polyline class="cls-3" points="118.61 148.66 118.42 148.38 87.67 103.01 87.58 102.88"/>
        <polyline class="cls-3" points="110.25 99.18 110.26 99.23 122.26 147.37 122.3 147.52"/>
        <polyline class="cls-3" points="118.1 148.46 118.42 148.38 122.26 147.37 122.75 147.24"/>
        <polyline class="cls-3" points="110.31 99.31 110.26 99.23 101.26 84.48 101.08 84.19"/>
        <polyline class="cls-3" points="88.62 87.38 88.96 87.3 101.26 84.48 101.61 84.4"/>
      </g>
    </g>
  </g>
  <g id="Layer_6" data-name="Layer 6">
    <path class="cls-1" d="M102.46,63.19c3.97,7.18-1.25,18.14-14.22,20.31-8.26,1.38-12.99-7.39-12.99-18.61s-2.47-19.39,9.83-18.9c2.36.09,9.44,2.82,17.39,17.2Z"/>
  </g>
  <g id="Layer_5" data-name="Layer 5">
    <ellipse class="cls-4" cx="76.14" cy="54.69" rx="11.29" ry="14.17"/>
  </g>
</svg>